<?xml version="1.0" encoding="utf-8"?>
<svg version="1.1" xmlns="http://www.w3.org/2000/svg" xmlns:xlink="http://www.w3.org/1999/xlink" x="0px" y="0px" viewBox="0 0 385 109" enable-background="new 0 0 385 109" xml:space="preserve">
	<g>
		<g>
			<path fill="white" d="M55.6,62.9v13.5c0,1.6,0,3.3,0.1,5.1c0,1.8,0.2,2.9,0.4,3.3c0.2,0.4,0.5,0.6,0.8,0.7s1.2,0.2,2.6,0.4l0.2,0.2v1.2
			l-0.2,0.2c-1.9-0.2-4-0.2-6.2-0.2c-2.3,0-4.4,0.1-6.2,0.2l-0.2-0.2v-1.2l0.2-0.2c1.4-0.1,2.3-0.3,2.6-0.4c0.3-0.1,0.6-0.4,0.8-0.7
			c0.2-0.4,0.3-1.2,0.4-2.6c0-1.4,0.1-3.3,0.1-5.7v-4.9c0-1.5,0-3.2-0.1-5c0-1.9-0.2-3-0.4-3.3c-0.2-0.4-0.5-0.6-0.8-0.7
			c-0.3-0.1-1.2-0.2-2.6-0.4l-0.2-0.2v-1.2l0.2-0.2c1.9,0.2,4,0.2,6.2,0.2c0.5,0,1.6,0,3.2-0.1c1.8-0.1,3.5-0.1,5.1-0.1
			c2.5,0,4.3,0.3,5.5,0.8s2.1,1.3,2.7,2.4c0.6,1.1,0.9,2.2,0.9,3.3c0,1.5-0.5,2.9-1.5,4.2c-1,1.3-2.2,2.3-3.8,2.9S62.2,75,60.7,75
			c-0.9,0-1.8-0.1-2.6-0.2l-0.3-1.2l0.2-0.2c1.8,0,3.3-0.2,4.3-0.5s1.8-1,2.3-1.9c0.5-0.9,0.8-2,0.8-3.2c0-1.8-0.5-3.1-1.5-4.1
			s-2.5-1.4-4.4-1.4C58.2,62.4,56.9,62.5,55.6,62.9z" />
			<path fill="white" d="M76.3,87.3v-1.2l0.2-0.2c1.4-0.1,2.3-0.3,2.6-0.4c0.3-0.1,0.6-0.4,0.8-0.7c0.2-0.4,0.3-1.2,0.4-2.6s0.1-3.3,0.1-5.7v-4.9
			c0-1.5,0-3.2-0.1-5s-0.2-3-0.4-3.3c-0.2-0.4-0.5-0.6-0.8-0.7c-0.3-0.1-1.2-0.2-2.6-0.4l-0.2-0.2v-1.2l0.2-0.2
			c1.9,0.2,4,0.2,6.2,0.2c2.3,0,4.4-0.1,6.2-0.2l0.2,0.2v1.2L88.9,62c-1.4,0.1-2.3,0.3-2.6,0.4c-0.3,0.1-0.6,0.4-0.7,0.7
			c-0.2,0.4-0.3,1.2-0.3,2.6c0,1.4-0.1,3.3-0.1,5.7v4.9c0,3.1,0,6.1,0.1,8.9c2.1,0,3.2,0,3.4,0c1.5,0,3.1,0,4.9-0.1
			c1.8-0.1,2.8-0.2,3.1-0.4c0.2-0.2,0.5-0.7,0.7-1.5l0.8-3.4l0.2-0.2h1.2l0.2,0.2c-0.3,2.3-0.5,4.8-0.6,7.4l-0.2,0.2
			c-6.9-0.1-10.5-0.2-10.7-0.2c-4.5,0-8.4,0.1-11.5,0.2L76.3,87.3z" />
			<path fill="white" d="M119.2,59.9h1.9l8.8,20.2c1,2.3,1.8,3.8,2.5,4.5c0.7,0.7,1.7,1.1,3,1.3l0.2,0.2v1.2l-0.2,0.2c-2.9-0.2-5.1-0.2-6.6-0.2
			c-1.3,0-3.5,0.1-6.6,0.2l-0.2-0.2v-1.2l0.2-0.2c2-0.2,3.1-0.4,3.4-0.6c0.3-0.2,0.4-0.5,0.4-0.8c0-0.3-0.2-1-0.7-2.2
			c-0.5-1.2-1-2.4-1.5-3.4c-1.5,0-3.4-0.1-5.7-0.1c-1.8,0-3.6,0-5.4,0.1c-0.8,1.9-1.4,3.2-1.6,3.9c-0.2,0.7-0.4,1.2-0.4,1.5
			c0,0.5,0.3,0.9,0.9,1.2c0.6,0.3,1.6,0.5,3,0.5l0.2,0.2v1.2l-0.2,0.2c-2-0.2-3.7-0.2-5.2-0.2c-1.6,0-3.3,0.1-5.2,0.2l-0.2-0.2v-1.2
			l0.2-0.2c1,0,1.7-0.2,2.2-0.5c0.5-0.3,1.2-1.1,1.8-2.2c0.7-1.1,1.4-2.4,2-3.8L119.2,59.9z M123.2,77l-4.8-10.9L113.6,77
			c1.2,0,2.8,0.1,4.7,0.1C120.3,77.1,121.9,77,123.2,77z" />
			<path fill="white" d="M134.8,63l-0.2-0.2v-1.2l0.2-0.2c2.1-0.3,3.8-0.6,5.3-0.9c0.9-0.2,1.4-0.3,1.7-0.3c0.4,0,0.7,0.1,0.9,0.2
			c0.2,0.1,0.5,0.6,0.9,1.2l1.3,2.4l5.5,10.3c2-3.4,4.5-7.9,7.5-13.7h3.4v0.7c-1,1.1-2.2,2.6-3.6,4.5c-1.4,1.9-2.7,4-4,6.1
			c-1.3,2.2-2,3.4-2.2,3.8c-0.2,0.4-0.2,0.9-0.2,1.3v1.2c0,1.7,0,3.2,0.1,4.4c0,1.2,0.2,1.9,0.4,2.3s0.5,0.6,0.8,0.7
			c0.3,0.1,1.2,0.2,2.6,0.4l0.2,0.2v1.2l-0.2,0.2c-1.9-0.2-4-0.2-6.2-0.2c-2.3,0-4.4,0.1-6.2,0.2l-0.2-0.2v-1.2l0.2-0.2
			c1.4-0.1,2.3-0.3,2.6-0.4c0.3-0.1,0.6-0.4,0.8-0.7c0.2-0.4,0.3-1.2,0.4-2.6c0-1.4,0.1-2.7,0.1-3.9v-1.9l-5.6-9.2
			c-1.2-2-2-3.2-2.5-3.6c-0.5-0.5-1.2-0.7-2.2-0.7C135.8,62.8,135.4,62.8,134.8,63z" />
			<path fill="white" d="M174.3,72.3c3.5,0.1,6,0.1,7.3,0.1c1.6,0,4,0,7.2-0.1v-0.8c0-1.4,0-3.1-0.1-5c0-1.9-0.2-3-0.4-3.4s-0.5-0.6-0.8-0.7
			c-0.3-0.1-1.2-0.2-2.6-0.4l-0.2-0.2v-1.2l0.2-0.2c1.9,0.2,3.9,0.2,6.1,0.2c2.2,0,4.3-0.1,6.1-0.2l0.2,0.2v1.2l-0.2,0.2
			c-1.4,0.1-2.3,0.3-2.6,0.4c-0.3,0.1-0.6,0.4-0.8,0.7c-0.2,0.4-0.3,1.3-0.3,2.8c0,1.5-0.1,3.3-0.1,5.5v4.9l0.1,5
			c0,1.9,0.2,3,0.4,3.3c0.2,0.4,0.5,0.6,0.8,0.7c0.3,0.1,1.2,0.2,2.6,0.4l0.2,0.2v1.2l-0.2,0.2c-1.9-0.2-3.9-0.2-6.1-0.2
			c-2.2,0-4.3,0.1-6.1,0.2l-0.2-0.2v-1.2l0.2-0.2c1.4-0.1,2.3-0.3,2.6-0.4c0.3-0.1,0.6-0.4,0.8-0.7c0.2-0.4,0.3-1.3,0.3-2.7
			c0-1.4,0.1-3.3,0.1-5.7v-2.3c-2.1-0.1-4.5-0.1-7.2-0.1c-2.4,0-4.9,0-7.3,0.1v2.3c0,1.5,0,3.2,0.1,5.1c0,1.9,0.2,3,0.4,3.3
			s0.5,0.6,0.8,0.7c0.3,0.1,1.2,0.2,2.6,0.4l0.2,0.2v1.2l-0.2,0.2c-1.9-0.2-3.9-0.2-6.1-0.2c-2.2,0-4.3,0.1-6.1,0.2l-0.2-0.2v-1.2
			l0.2-0.2c1.4-0.1,2.3-0.3,2.6-0.4c0.3-0.1,0.6-0.4,0.8-0.7c0.2-0.4,0.3-1.2,0.4-2.6c0-1.4,0.1-3.3,0.1-5.7v-4.9c0-1.5,0-3.2-0.1-5
			c0-1.9-0.2-3-0.4-3.3c-0.2-0.4-0.5-0.6-0.8-0.7c-0.3-0.1-1.2-0.2-2.6-0.4l-0.2-0.2v-1.2l0.2-0.2c1.9,0.2,3.9,0.2,6.1,0.2
			c2.2,0,4.3-0.1,6.1-0.2l0.2,0.2v1.2l-0.2,0.2c-1.4,0.1-2.3,0.3-2.6,0.4c-0.3,0.1-0.6,0.4-0.8,0.7c-0.2,0.4-0.3,1.3-0.3,2.6
			c0,1.4-0.1,3.3-0.1,5.7V72.3z" />
			<path fill="white" d="M232.1,72.7c0,2.4-0.4,4.6-1.2,6.5c-0.8,1.9-1.9,3.6-3.4,5c-1.5,1.4-3,2.4-4.5,2.9c-1.6,0.6-3.4,0.8-5.5,0.8
			c-4.7,0-8.3-1.4-10.8-4.1c-2.5-2.7-3.7-6.1-3.7-10.1c0-2.8,0.6-5.3,1.8-7.4c1.2-2.2,2.9-3.8,5.2-5c2.3-1.2,4.9-1.7,7.9-1.7
			c3,0,5.5,0.6,7.6,1.7c2.1,1.1,3.7,2.7,4.9,4.7C231.6,68.1,232.1,70.3,232.1,72.7z M226.6,74.4c0-3.8-0.8-6.9-2.4-9.2
			c-1.6-2.3-3.9-3.5-7-3.5c-2.6,0-4.6,0.9-6.2,2.7c-1.6,1.8-2.4,4.5-2.4,8.1c0,3.7,0.8,6.9,2.4,9.6s4,4,7,4c2.7,0,4.8-1.1,6.3-3.2
			C225.8,80.9,226.6,78,226.6,74.4z" />
			<path fill="white" d="M237.9,61.8v-1.2l0.2-0.2c1.9,0.2,4,0.2,6.2,0.2c2.3,0,4.4-0.1,6.2-0.2l0.2,0.2v1.2l-0.2,0.2c-1.4,0.1-2.3,0.3-2.6,0.4
			c-0.3,0.1-0.6,0.4-0.7,0.7s-0.3,1.2-0.3,2.6c0,1.4-0.1,3.3-0.1,5.7v5.1c0,2.3,0.2,4,0.6,5.1s1.2,2,2.2,2.6c1.1,0.6,2.6,1,4.5,1
			c1.7,0,3-0.2,4-0.6c1-0.4,1.8-1,2.3-1.7c0.5-0.7,0.9-1.8,1.2-3.1c0.2-1.3,0.4-3.1,0.4-5.4l-0.1-6.9c0-2.3,0-3.7-0.1-4.1
			c-0.1-0.4-0.3-0.7-0.6-0.9c-0.3-0.2-1.3-0.4-3.1-0.5l-0.2-0.2v-1.2l0.2-0.2c1.7,0.2,3.3,0.2,4.9,0.2c1.6,0,3.3-0.1,5.1-0.2
			l0.2,0.2v1.2l-0.2,0.2c-1.7,0.1-2.7,0.3-3,0.5c-0.3,0.2-0.5,0.5-0.6,0.9c-0.1,0.4-0.1,1.8-0.2,4.1l-0.1,9.8c0,2.3-0.3,4.1-0.7,5.4
			s-1.2,2.3-2.2,3.2c-1,0.9-2.1,1.5-3.4,1.9s-2.8,0.6-4.8,0.6c-1.9,0-3.6-0.2-5-0.6c-1.4-0.4-2.5-1-3.4-1.7c-0.9-0.7-1.6-1.7-2-3
			c-0.5-1.2-0.7-2.9-0.7-4.9v-6.7c0-1.5,0-3.2-0.1-5c0-1.9-0.2-3-0.4-3.3c-0.2-0.4-0.5-0.6-0.8-0.7c-0.3-0.1-1.2-0.2-2.6-0.4
			L237.9,61.8z" />
			<path fill="white" d="M275,80.4h1.3l0.2,0.2c0,1.5,0.2,2.6,0.5,3.4c0.4,0.7,1,1.3,1.9,1.7s2.1,0.6,3.4,0.6c2.3,0,4.1-0.5,5.3-1.6
			c1.2-1.1,1.9-2.5,1.9-4.2c0-0.8-0.1-1.5-0.4-2.2s-0.7-1.1-1.3-1.5s-1.2-0.6-1.9-0.7c-0.6-0.1-1.5-0.3-2.7-0.5
			c-2.1-0.3-3.6-0.7-4.6-1.1c-1-0.4-1.9-1.1-2.5-2.1s-1-2.3-1-3.7c0-1.6,0.5-3.2,1.4-4.6s2.2-2.6,3.8-3.3c1.6-0.7,3.4-1.1,5.5-1.1
			c2.6,0,4.9,0.6,7,1.9c-0.4,1.7-0.6,3.6-0.6,5.4l-0.2,0.2h-1.2l-0.2-0.2c0-1.5-0.1-2.5-0.3-3c-0.2-0.5-0.7-1.1-1.5-1.6
			c-0.8-0.5-1.9-0.8-3.2-0.8c-1.9,0-3.5,0.5-4.6,1.4s-1.7,2.2-1.7,3.8c0,0.9,0.2,1.7,0.6,2.3c0.4,0.6,0.9,1,1.6,1.2s1.7,0.5,3.2,0.7
			c2.7,0.4,4.6,0.9,5.7,1.3c1.1,0.4,2,1.1,2.7,2.2c0.7,1.1,1.1,2.4,1.1,3.9c0,2.7-1.1,5-3.3,6.9c-2.2,1.9-5.2,2.8-8.8,2.8
			c-2.7,0-5.3-0.5-7.7-1.6c0.3-1.7,0.4-3.8,0.4-6.1L275,80.4z" />
			<path fill="white" d="M323.5,79.7l0.2,0.2c-0.3,2.3-0.5,4.8-0.6,7.4l-0.2,0.2c-6.9-0.1-10.5-0.2-10.7-0.2c-4.5,0-8.4,0.1-11.5,0.2l-0.2-0.2
			v-1.2l0.2-0.2c1.4-0.1,2.3-0.3,2.6-0.4c0.3-0.1,0.6-0.4,0.8-0.7c0.2-0.4,0.3-1.2,0.4-2.6c0-1.4,0.1-3.3,0.1-5.7v-4.9
			c0-1.5,0-3.2-0.1-5c0-1.9-0.2-3-0.4-3.3c-0.2-0.4-0.5-0.6-0.8-0.7c-0.3-0.1-1.2-0.2-2.6-0.4l-0.2-0.2v-1.2l0.2-0.2
			c2.5,0.2,6.3,0.2,11.5,0.2c4.6,0,8.1-0.1,10.3-0.2l0.1,0.2c-0.4,2-0.6,3.9-0.6,5.8v0.8l-0.2,0.1h-1.4l-0.2-0.1
			c-0.3-2.6-0.5-4-0.7-4.3c-0.2-0.3-1.1-0.5-2.7-0.5l-4.7-0.1c-0.7,0-1.7,0-2.9,0c-0.1,1.6-0.1,3.3-0.1,5c0,2.9,0,4.6,0,5.2l3.1-0.1
			c2.1,0,3.4-0.1,3.7-0.2s0.6-0.3,0.8-0.6c0.2-0.3,0.4-1.3,0.6-3l0.2-0.2h1.2l0.1,0.2c0,1.8-0.1,3-0.1,3.6c0,2.8,0,4.7,0.1,5.8
			l-0.2,0.2h-1.3l-0.2-0.2c-0.1-1.6-0.3-2.6-0.5-3c-0.2-0.4-0.5-0.7-0.9-0.8c-0.4-0.1-1.6-0.2-3.6-0.2l-3.2-0.1c0,2-0.1,3.5-0.1,4.5
			c0.1,2.2,0.1,4.4,0.1,6.6c2.1,0,3.2,0,3.4,0c1.5,0,3.1,0,4.9-0.1c1.8-0.1,2.8-0.2,3.1-0.4c0.2-0.2,0.5-0.7,0.7-1.5l0.8-3.4
			l0.2-0.2H323.5z" />
		</g>
		<g>
			<path fill="white" d="M8.6,9.9c7.7,0.3,12.6,0.4,14.7,0.4c2.9,0,6.1-0.1,9.7-0.3c3.8-0.1,6.1-0.2,7-0.2c4.3,0,7.8,0.5,10.6,1.6
			c2.8,1.1,5.1,3,6.9,5.8c1.8,2.8,2.7,6.2,2.7,10.2c0,3.3-0.6,6.4-1.9,9.5c-1.3,3.1-3.1,5.7-5.4,7.8c-2.3,2.1-4.6,3.7-7,4.6
			c-2.3,0.9-4.8,1.4-7.3,1.4c-1.9,0-4-0.3-6.3-0.8l-0.8-3.3L32,46c2.3,0.6,4.1,0.9,5.6,0.9c4,0,7.2-1.6,9.6-4.7
			c2.4-3.1,3.6-7.2,3.6-12.1c0-4.9-1.3-8.9-3.8-11.8c-2.5-2.9-6.3-4.4-11.4-4.4c-2.8,0-5.8,0.6-9.2,1.9c-0.3,2.8-0.4,9.6-0.4,20.3
			v25.3l0,10.6c0,4.1,0.1,6.8,0.3,8s0.4,2,0.7,2.4c0.3,0.4,0.8,0.7,1.7,1c0.8,0.3,2.9,0.5,6.1,0.6l0.4,0.3V87l-0.4,0.4
			C27,87.2,22.6,87,21.7,87c-1,0-5.4,0.1-13.1,0.4L8.2,87v-2.7L8.6,84c2.8-0.1,4.7-0.3,5.7-0.5c0.9-0.2,1.6-0.5,1.9-0.8
			c0.3-0.3,0.6-1.1,0.8-2.2c0.2-1.1,0.3-3.6,0.3-7.5l0-11.5V36l-0.1-10.6c0-4.1-0.1-6.8-0.3-8c-0.1-1.2-0.4-2-0.6-2.4
			c-0.3-0.4-0.8-0.7-1.7-1c-0.8-0.3-2.9-0.5-6.1-0.6L8.2,13v-2.7L8.6,9.9z" />
			<path fill="white" d="M108.1,28.7c0,3.5-0.6,6.6-1.7,9.4c-1.1,2.8-2.7,5.2-4.9,7.2c-2.1,2-4.3,3.4-6.6,4.2s-4.9,1.2-8,1.2c-6.8,0-12-2-15.6-5.9
			c-3.6-3.9-5.3-8.8-5.3-14.6c0-4,0.9-7.6,2.6-10.7c1.7-3.1,4.2-5.5,7.5-7.2s7.1-2.5,11.5-2.5c4.3,0,7.9,0.8,10.9,2.4
			c3,1.6,5.4,3.8,7,6.7C107.2,21.9,108.1,25.2,108.1,28.7z M100,31.2c0-5.5-1.1-10-3.4-13.4c-2.3-3.4-5.6-5-10-5
			c-3.7,0-6.7,1.3-9,3.9c-2.3,2.6-3.5,6.5-3.5,11.8c0,5.4,1.2,10,3.5,13.9c2.3,3.9,5.7,5.8,10.1,5.8c3.9,0,6.9-1.5,9.1-4.6
			S100,36.3,100,31.2z" />
			<path fill="white" d="M115.8,39.7h1.8l0.2,0.2c0,2.2,0.3,3.8,0.8,4.9c0.5,1.1,1.4,1.9,2.8,2.5c1.4,0.6,3,0.9,4.9,0.9c3.3,0,5.9-0.8,7.7-2.3
			c1.8-1.6,2.7-3.6,2.7-6.1c0-1.2-0.2-2.2-0.6-3.1c-0.4-0.9-1.1-1.6-1.9-2.1c-0.9-0.5-1.8-0.8-2.7-1c-0.9-0.2-2.2-0.4-3.9-0.7
			c-3-0.5-5.2-1-6.7-1.6c-1.5-0.6-2.7-1.6-3.7-3.1c-1-1.5-1.5-3.3-1.5-5.4c0-2.3,0.7-4.6,2-6.7c1.3-2.1,3.1-3.7,5.5-4.7
			c2.3-1,5-1.5,7.9-1.5c3.7,0,7.1,0.9,10.1,2.7c-0.6,2.5-0.9,5.1-0.9,7.9l-0.3,0.2h-1.7l-0.2-0.2c0-2.1-0.2-3.6-0.4-4.4
			c-0.3-0.8-1-1.6-2.2-2.3c-1.2-0.7-2.7-1.1-4.6-1.1c-2.8,0-5,0.7-6.6,2.1c-1.6,1.4-2.4,3.2-2.4,5.4c0,1.3,0.3,2.4,0.9,3.3
			c0.6,0.8,1.4,1.4,2.3,1.8s2.5,0.7,4.7,1c3.9,0.6,6.6,1.2,8.2,1.8c1.6,0.6,2.9,1.6,4,3.2c1,1.6,1.6,3.5,1.6,5.7
			c0,3.9-1.6,7.2-4.8,9.9c-3.2,2.7-7.4,4.1-12.7,4.1c-3.9,0-7.6-0.7-11.1-2.2c0.4-2.5,0.6-5.4,0.6-8.8L115.8,39.7z" />
			<path fill="white" d="M148.9,11.2l0.3-0.3c5.4,0.3,11.5,0.4,18.2,0.4c6.8,0,12.9-0.1,18.2-0.4l0.3,0.3c-0.2,3.7-0.2,6.8-0.2,9.3l-0.2,0.2h-1.7
			l-0.2-0.2c-0.4-3-0.7-4.8-0.9-5.3c-0.2-0.5-0.5-0.9-0.9-1.1c-0.4-0.2-1.2-0.2-2.3-0.2h-8.4l-0.2,10.6V34c0,2.1,0,4.4,0.1,7.2
			c0.1,2.7,0.2,4.4,0.5,4.9c0.3,0.5,0.7,0.9,1.1,1.1c0.5,0.2,1.7,0.4,3.8,0.6l0.3,0.3v1.7l-0.3,0.3c-2.8-0.2-5.7-0.3-8.8-0.3
			c-3.2,0-6.1,0.1-8.8,0.3l-0.3-0.3v-1.7l0.3-0.3c2.1-0.2,3.3-0.4,3.8-0.6c0.5-0.2,0.8-0.5,1.1-1.1c0.3-0.5,0.4-1.9,0.5-4
			s0.1-4.8,0.1-8v-9.4c-0.1-3.6-0.2-7.2-0.2-10.8h-8.4c-1.2,0-2,0.1-2.4,0.3c-0.4,0.2-0.7,0.6-0.9,1.2c-0.2,0.6-0.5,2.3-0.9,5.2
			l-0.2,0.2h-1.6l-0.3-0.2C149.1,19.3,149.1,16.2,148.9,11.2z" />
		</g>
		<g>
			<path fill="white" d="M334.5,87.4V87l0.1-0.1c0.5,0,0.8-0.1,0.9-0.1c0.1,0,0.2-0.1,0.3-0.2c0.1-0.1,0.1-0.4,0.1-0.9c0-0.5,0-1.1,0-1.9v-1.6
			c0-0.5,0-1.1,0-1.7c0-0.6-0.1-1-0.1-1.1c-0.1-0.1-0.2-0.2-0.3-0.2c-0.1,0-0.4-0.1-0.9-0.1l-0.1-0.1v-0.4l0.1-0.1
			c0.6,0.1,1.3,0.1,2.1,0.1c0.8,0,1.5,0,2.1-0.1l0.1,0.1v0.4l-0.1,0.1c-0.5,0-0.8,0.1-0.9,0.1c-0.1,0-0.2,0.1-0.2,0.2
			c-0.1,0.1-0.1,0.4-0.1,0.9s0,1.1,0,1.9v1.6c0,0.5,0,1.1,0,1.7c0,0.6,0.1,1,0.1,1.1s0.2,0.2,0.3,0.2c0.1,0,0.4,0.1,0.9,0.1l0.1,0.1
			v0.4l-0.1,0.1c-0.6-0.1-1.3-0.1-2.1-0.1C335.8,87.4,335.1,87.4,334.5,87.4L334.5,87.4z" />
			<path fill="white" d="M340.7,78.9v-0.4l0.1-0.1c0.4,0,0.9,0.1,1.4,0.1c0.4,0,0.9,0,1.4-0.1c0.3,0.4,1.1,1.5,2.5,3.1c1.4,1.7,2.6,3,3.6,4.1
			l-0.1-4.9c0-0.8,0-1.2-0.1-1.4c0-0.1-0.1-0.2-0.2-0.3c-0.1-0.1-0.4-0.1-1-0.2l-0.1-0.1v-0.4l0.1-0.1c0.6,0.1,1.1,0.1,1.6,0.1
			c0.6,0,1.1,0,1.7-0.1l0.1,0.1v0.4l-0.1,0.1c-0.5,0-0.9,0.1-1,0.1s-0.2,0.1-0.3,0.3c0,0.1-0.1,0.6-0.1,1.4l0,4.3c0,1,0,1.8,0,2.5
			l-0.1,0.1l-1.3-0.3c-2-2.5-4.1-4.9-6-7l0,4.7c0,0.8,0,1.2,0.1,1.4c0,0.1,0.1,0.2,0.2,0.3c0.1,0.1,0.4,0.1,1,0.2l0.1,0.1v0.4
			l-0.1,0.1c-0.6-0.1-1.1-0.1-1.6-0.1c-0.6,0-1.1,0-1.7,0.1l-0.1-0.1V87l0.1-0.1c0.5,0,0.8-0.1,0.9-0.1c0.1,0,0.2-0.1,0.3-0.2
			s0.1-0.4,0.1-0.7c0-0.1,0-0.3,0-0.8l0.1-4.1c0-0.7,0-1.2,0-1.3c-0.2-0.2-0.3-0.4-0.5-0.5C341.5,79.1,341.2,79,340.7,78.9
			L340.7,78.9z" />
			<path fill="white" d="M362.3,86.1l-0.2,0.7c-0.4,0.4-0.9,0.6-1.6,0.8c-0.6,0.2-1.3,0.2-1.9,0.2c-1,0-1.9-0.2-2.7-0.7c-0.8-0.4-1.4-1-1.8-1.8
			c-0.4-0.8-0.6-1.6-0.6-2.4c0-1,0.3-1.9,0.8-2.6c0.5-0.7,1.1-1.2,1.9-1.6s1.6-0.5,2.7-0.5c1.2,0,2.3,0.2,3.3,0.6l0,0.1
			c-0.1,0.5-0.2,1.3-0.2,2.4l0,0.1h-0.4l-0.1-0.1c0-0.5,0-0.9-0.1-1.1c-0.1-0.2-0.2-0.5-0.5-0.7c-0.3-0.2-0.6-0.4-1-0.5
			c-0.4-0.1-0.8-0.2-1.3-0.2c-1,0-1.8,0.3-2.5,0.9c-0.6,0.6-1,1.6-1,2.8c0,0.9,0.1,1.6,0.4,2.3c0.3,0.7,0.7,1.2,1.3,1.6
			s1.3,0.6,2.2,0.6c1.3,0,2.3-0.4,2.9-1.2L362.3,86.1z" />
			<path fill="white" d="M365.8,85.3c0.3,0,0.6,0.1,0.8,0.3c0.2,0.2,0.3,0.5,0.3,0.8c0,0.3-0.1,0.6-0.3,0.8c-0.2,0.2-0.5,0.3-0.8,0.3
			c-0.3,0-0.6-0.1-0.8-0.3c-0.2-0.2-0.3-0.5-0.3-0.8c0-0.3,0.1-0.6,0.3-0.8C365.2,85.4,365.5,85.3,365.8,85.3z" />
		</g>
		<g>
			<path fill="#A1A3A6" d="M225.1,36l-0.5,2.3c-1.6,0.8-3.2,1.4-4.8,1.8c-1.6,0.4-3,0.6-4.3,0.6c-1.4,0-2.6-0.2-3.7-0.6
			c-1-0.4-1.8-1-2.4-1.8c-0.6-0.8-0.8-1.7-0.8-2.7c0-1.7,0.8-3.4,2.3-5.2c1.6-1.7,3.8-3.3,6.7-4.7c-1.4-0.2-2.1-0.9-2.1-2.2
			c0-1.7,1.5-3.6,4.5-5.8c0.9-0.7,1.9-1.3,2.8-1.8c1-0.5,1.8-0.9,2.7-1.2c0.8-0.3,1.6-0.4,2.2-0.4c0.7,0,1.2,0.2,1.6,0.5
			c0.4,0.4,0.6,0.9,0.6,1.5c0,0.6-0.1,1.2-0.4,2s-0.7,1.5-1.3,2.3c-0.5,0.8-1.2,1.5-1.8,2.2l-1-1.1c2-2.2,3-4,3-5.3
			c0-0.9-0.5-1.3-1.6-1.3c-0.7,0-1.5,0.2-2.5,0.6c-1,0.4-1.9,0.9-2.9,1.6c-1.3,0.9-2.3,1.8-3,2.8c-0.7,1-1.1,1.9-1.1,2.6
			c0,0.4,0.1,0.7,0.4,1.1c0.2,0.3,0.5,0.6,0.9,0.7c0.4,0.1,1,0.2,1.9,0.2h0.3l-0.2,1.2c-1.9,0.8-3.9,2-5.8,3.4
			c-3.2,2.4-4.8,4.6-4.8,6.7c0,1,0.4,1.9,1.2,2.6s1.9,1,3.1,1c0.9,0,1.9-0.1,2.9-0.4s2.3-0.7,3.6-1.2
			C221.9,37.6,223.4,36.9,225.1,36z" />
			<path fill="#A1A3A6" d="M227,38.9l1.1-1.3c0.6,1.3,1.5,2,2.7,2c0.6,0,1.2-0.2,1.6-0.6c0.5-0.4,0.7-0.9,0.7-1.4
			c0-0.4-0.1-0.7-0.3-1c-0.2-0.3-0.7-0.8-1.6-1.4c-0.8-0.6-1.3-1.1-1.5-1.5c-0.3-0.4-0.4-0.8-0.4-1.2c0-0.6,0.2-1.2,0.5-1.7
			c0.4-0.5,0.8-0.9,1.4-1.2c0.6-0.3,1.2-0.5,1.9-0.5c0.6,0,1.1,0.1,1.4,0.4c0.4,0.3,0.6,0.7,0.6,1.1c0,0.6-0.2,1-0.7,1.2
			c-0.1-0.6-0.3-1.1-0.7-1.4c-0.4-0.3-0.9-0.5-1.5-0.5c-0.5,0-1,0.2-1.4,0.5s-0.6,0.7-0.6,1.2c0,0.5,0.3,1.1,1,1.6l1.1,0.9
			c1.1,0.9,1.6,1.7,1.6,2.6c0,0.7-0.2,1.3-0.6,1.9c-0.4,0.6-0.9,1-1.5,1.4s-1.3,0.5-2,0.5C228.7,40.5,227.8,40,227,38.9z" />
			<path fill="#A1A3A6" d="M240.3,29.9l-1.5,6.4c-0.2,0.7-0.2,1.2-0.2,1.5c0,0.5,0.1,0.8,0.3,1.1c0.2,0.3,0.5,0.4,0.9,0.4
			c0.3,0,0.7-0.1,1-0.3s0.7-0.6,1.3-1.2l0.2-0.2l0.3,0.3c-0.8,0.9-1.4,1.6-1.9,1.9c-0.5,0.4-1,0.6-1.5,0.6c-0.6,0-1.1-0.2-1.5-0.6
			c-0.4-0.4-0.5-0.9-0.5-1.6c0-0.5,0.1-1.2,0.3-2.1l1.2-6.2h-1.8l0.1-0.7h1.8l1.1-5.2l1.8-0.7l-1.3,5.9h3.1l-0.1,0.7H240.3z" />
			<path fill="#A1A3A6" d="M254.7,28.8l-1.8,7c-0.2,0.8-0.3,1.4-0.3,1.8c0,0.4,0.1,0.7,0.2,1c0.2,0.3,0.4,0.4,0.6,0.4
			c0.4,0,1-0.5,1.8-1.4l0.3,0.3l-0.2,0.2c-0.7,0.8-1.2,1.3-1.6,1.6c-0.4,0.3-0.7,0.5-1,0.5c-0.4,0-0.8-0.2-1.1-0.6
			c-0.3-0.4-0.5-0.9-0.5-1.5c0-0.4,0.2-1.3,0.5-2.8l0.2-0.7c-0.5,1.1-1.1,2.2-1.9,3.2c-1.3,1.7-2.6,2.5-3.8,2.5
			c-0.7,0-1.3-0.3-1.7-0.8c-0.4-0.5-0.6-1.2-0.6-2.1c0-1.2,0.3-2.5,1-3.8c0.7-1.3,1.5-2.4,2.6-3.3c1-0.9,2-1.3,3-1.3
			c1,0,1.8,0.4,2.3,1.1l0.2-0.7L254.7,28.8z M252.5,31.3c-0.2-0.5-0.4-0.9-0.8-1.1c-0.4-0.3-0.8-0.4-1.3-0.4c-0.6,0-1.2,0.3-1.8,0.8
			s-1.2,1.2-1.7,2.2c-0.4,0.7-0.8,1.5-1,2.4c-0.3,0.9-0.4,1.6-0.4,2.2c0,0.7,0.1,1.2,0.4,1.5c0.2,0.4,0.6,0.6,1.1,0.6
			c0.6,0,1.2-0.3,1.8-0.8c0.6-0.5,1.3-1.3,1.9-2.4c0.4-0.6,0.7-1.2,0.9-1.8s0.5-1.4,0.7-2.5L252.5,31.3z" />
			<path fill="#A1A3A6" d="M261.9,14.1l2-1l-5.5,23.7c2.3-5.1,4.6-7.7,6.8-7.7c0.4,0,0.8,0.1,1.2,0.4c0.4,0.2,0.6,0.6,0.8,1
			c0.2,0.5,0.3,0.9,0.3,1.5c0,1-0.2,2.1-0.7,3.2c-0.5,1.2-1,2.2-1.7,3c-1.3,1.5-2.6,2.3-4.1,2.3c-0.5,0-0.9-0.1-1.4-0.2
			c-0.4-0.2-0.9-0.4-1.5-0.8l-1.3,0.8L261.9,14.1z M258.4,38.2c0.6,1.2,1.4,1.8,2.5,1.8c0.8,0,1.5-0.3,2.1-1
			c0.7-0.7,1.2-1.6,1.8-2.9c0.3-0.7,0.5-1.5,0.7-2.3c0.2-0.8,0.3-1.5,0.3-2c0-1.2-0.4-1.8-1.3-1.8c-0.6,0-1.2,0.3-1.9,1
			c-0.7,0.7-1.4,1.7-2.2,2.9C259.7,35.1,259,36.6,258.4,38.2z" />
			<path fill="#A1A3A6" d="M276.5,13.1l-5,22.1l-0.2,0.7c-0.2,0.7-0.2,1.3-0.2,1.8c0,0.4,0.1,0.7,0.2,1c0.1,0.2,0.3,0.4,0.5,0.4
			c0.4,0,1-0.5,1.9-1.4L274,38l-0.2,0.2c-0.7,0.9-1.3,1.4-1.6,1.7c-0.3,0.3-0.7,0.5-1,0.5c-0.4,0-0.7-0.2-1-0.6
			c-0.3-0.4-0.4-0.9-0.4-1.5c0-0.4,0.1-1,0.2-1.8l4.4-22.3L276.5,13.1z" />
			<path fill="#A1A3A6" d="M279,28.9l-1.7,6.3c-0.3,1-0.4,1.9-0.4,2.5c0,0.4,0.1,0.7,0.2,1c0.1,0.3,0.3,0.4,0.6,0.4
			c0.4,0,1-0.5,1.9-1.4l0.3,0.3l-0.2,0.2c-0.7,0.9-1.3,1.4-1.6,1.7c-0.3,0.3-0.7,0.5-1,0.5c-0.4,0-0.7-0.2-1-0.6
			c-0.3-0.4-0.4-0.9-0.4-1.5c0-0.4,0.1-1,0.2-1.8l1.2-6.7L279,28.9z M279.5,21.4c0.3,0,0.6,0.1,0.8,0.3s0.3,0.5,0.3,0.8
			c0,0.3-0.1,0.6-0.3,0.8c-0.2,0.2-0.5,0.3-0.8,0.3c-0.3,0-0.6-0.1-0.8-0.3s-0.3-0.5-0.3-0.8c0-0.3,0.1-0.6,0.3-0.8
			C278.9,21.5,279.2,21.4,279.5,21.4z" />
			<path fill="#A1A3A6" d="M279.9,38.9l1.1-1.3c0.6,1.3,1.5,2,2.7,2c0.6,0,1.2-0.2,1.6-0.6c0.5-0.4,0.7-0.9,0.7-1.4
			c0-0.4-0.1-0.7-0.3-1c-0.2-0.3-0.7-0.8-1.6-1.4c-0.8-0.6-1.3-1.1-1.5-1.5c-0.3-0.4-0.4-0.8-0.4-1.2c0-0.6,0.2-1.2,0.5-1.7
			c0.4-0.5,0.8-0.9,1.4-1.2c0.6-0.3,1.2-0.5,1.9-0.5c0.6,0,1.1,0.1,1.4,0.4c0.4,0.3,0.6,0.7,0.6,1.1c0,0.6-0.2,1-0.7,1.2
			c-0.1-0.6-0.3-1.1-0.7-1.4c-0.4-0.3-0.9-0.5-1.5-0.5c-0.5,0-1,0.2-1.4,0.5s-0.6,0.7-0.6,1.2c0,0.5,0.3,1.1,1,1.6l1.1,0.9
			c1.1,0.9,1.6,1.7,1.6,2.6c0,0.7-0.2,1.3-0.6,1.9c-0.4,0.6-0.9,1-1.5,1.4s-1.3,0.5-2,0.5C281.7,40.5,280.7,40,279.9,38.9z" />
			<path fill="#A1A3A6" d="M289.5,40.3l5.1-26.3l2-1l-5.3,23.4c0.1-0.1,0.1-0.1,0.1-0.2l0.4-1c0.8-1.7,1.7-3.2,2.8-4.5
			c1.1-1.2,2.1-1.7,3-1.7c0.5,0,0.9,0.2,1.2,0.5c0.3,0.3,0.4,0.7,0.4,1.3c0,0.3-0.1,0.7-0.2,1.2l-0.2,0.8l-0.6,2.3l-0.2,0.7
			c-0.2,0.8-0.3,1.4-0.3,1.8s0.1,0.7,0.2,1c0.1,0.2,0.3,0.4,0.6,0.4c0.4,0,1-0.5,1.9-1.4l0.3,0.3l-0.2,0.2c-0.7,0.9-1.3,1.4-1.6,1.7
			c-0.4,0.3-0.7,0.5-1,0.5c-0.4,0-0.7-0.2-1-0.6c-0.3-0.4-0.4-0.9-0.4-1.5c0-0.3,0.1-1,0.2-1.8l0.7-4.1c0.1-0.6,0.2-1,0.2-1.3
			c0-0.3-0.1-0.5-0.2-0.6c-0.1-0.1-0.3-0.2-0.6-0.2c-0.5,0-1,0.3-1.6,0.8s-1.2,1.3-1.9,2.3s-1.2,2-1.6,3.2c-0.5,1.1-0.8,2.3-1,3.4
			L289.5,40.3z" />
			<path fill="#A1A3A6" d="M309.9,37.2l0.3,0.3c-0.8,1-1.6,1.8-2.3,2.3c-0.8,0.5-1.6,0.7-2.4,0.7c-1,0-1.9-0.3-2.5-1
			c-0.6-0.7-0.9-1.6-0.9-2.7c0-1.2,0.3-2.3,0.9-3.5s1.4-2.2,2.3-2.9s1.8-1.2,2.7-1.2c0.5,0,1,0.2,1.3,0.5c0.3,0.3,0.5,0.7,0.5,1.2
			c0,1-0.5,2-1.6,3s-2.5,1.8-4.4,2.5c0,0.1,0,0.2,0,0.3c0,0.9,0.2,1.6,0.7,2.2s1.1,0.8,1.9,0.8c0.6,0,1.2-0.2,1.7-0.6
			C308.6,38.6,309.2,38,309.9,37.2z M303.7,35.7c1.4-0.6,2.4-1.3,3.2-2.1c0.5-0.5,0.9-1.1,1.2-1.7c0.3-0.6,0.5-1.1,0.5-1.6
			c0-0.6-0.3-0.9-0.8-0.9c-0.8,0-1.7,0.7-2.5,2C304.4,32.8,303.9,34.2,303.7,35.7z" />
			<path fill="#A1A3A6" d="M325.7,13.1l-5.1,22.1c-0.3,1.2-0.4,2-0.4,2.5c0,0.4,0.1,0.7,0.2,1c0.1,0.3,0.3,0.4,0.6,0.4
			c0.3,0,0.7-0.2,1.2-0.7l0.6-0.6c0,0,0,0,0,0s0,0,0.1,0l0.3,0.3l-0.2,0.2c-0.5,0.5-0.7,0.8-0.7,0.8l-0.6,0.6
			c-0.3,0.3-0.6,0.5-0.7,0.6s-0.3,0.1-0.5,0.1c-0.4,0-0.8-0.2-1.1-0.7c-0.3-0.4-0.4-0.9-0.4-1.5c0-0.3,0.1-0.9,0.3-1.8l0.2-1.1
			c-0.3,0.8-0.9,1.7-1.6,2.6c-1.3,1.7-2.5,2.5-3.8,2.5c-0.7,0-1.3-0.3-1.7-0.8c-0.4-0.5-0.6-1.3-0.6-2.2c0-1.3,0.3-2.5,1-3.8
			c0.7-1.3,1.5-2.4,2.5-3.2s2.1-1.3,3.1-1.3c0.8,0,1.5,0.2,2.1,0.7l3.1-15.7L325.7,13.1z M320.3,30.7c-0.1-0.3-0.4-0.6-0.7-0.8
			c-0.4-0.2-0.7-0.3-1.2-0.3c-0.6,0-1.2,0.3-1.9,0.8c-0.6,0.5-1.2,1.3-1.8,2.3c-0.4,0.7-0.7,1.5-1,2.4c-0.3,0.9-0.4,1.6-0.4,2.4
			c0,0.6,0.1,1.1,0.4,1.5c0.3,0.4,0.6,0.6,1.1,0.6c0.5,0,1.1-0.3,1.7-0.8c0.6-0.5,1.2-1.3,1.9-2.4c0.4-0.7,0.8-1.4,1-2.2
			c0.3-1,0.5-1.8,0.6-2.3L320.3,30.7z" />
			<path fill="#A1A3A6" d="M336.5,40.1h-5.8l0.1-0.5h0.5c0.6,0,1.1-0.1,1.3-0.3c0.2-0.2,0.4-0.6,0.5-1.2l0.2-0.7l1.7-8l0.1-0.7
			c0.1-0.3,0.1-0.6,0.1-0.8c0-0.3-0.1-0.5-0.4-0.5c-0.2,0-0.5,0.1-0.9,0.3l-1.6,0.9l-0.1-0.4l0.4-0.3l2.1-1.5
			c0.9-0.7,1.8-1.3,2.4-1.8h0.5c-0.3,1-0.7,2.6-1.1,4.6l-1.7,8.2c-0.1,0.7-0.2,1.1-0.2,1.4c0,0.3,0.1,0.5,0.2,0.6
			c0.2,0.1,0.5,0.2,1,0.2h0.7L336.5,40.1z" />
			<path fill="#A1A3A6" d="M340.7,40.9l-0.3-0.3c1.8-1.2,3.3-2.5,4.5-3.9s2-2.8,2.4-4.1c-0.9,1.1-2,1.7-3.4,1.7c-1,0-1.9-0.4-2.6-1.1
			c-0.7-0.7-1-1.7-1-2.8c0-1,0.3-2,0.8-2.9c0.5-0.9,1.2-1.7,2.1-2.2c0.9-0.5,1.8-0.8,2.8-0.8c1.2,0,2.2,0.4,2.9,1.2
			c0.7,0.8,1,1.9,1,3.3c0,1-0.2,1.9-0.5,2.9c-0.3,1-0.8,1.9-1.4,2.9s-1.4,1.8-2.2,2.6C344.1,38.9,342.4,40.1,340.7,40.9z
			 M342.1,30.7c0,0.9,0.2,1.6,0.6,2.2c0.4,0.5,0.9,0.8,1.6,0.8c0.7,0,1.3-0.3,2-0.8c0.6-0.5,1.1-1.3,1.5-2.2
			c0.4-0.9,0.6-1.8,0.6-2.9c0-0.6-0.1-1.2-0.3-1.7c-0.2-0.5-0.5-0.8-0.8-1.1c-0.4-0.2-0.8-0.4-1.3-0.4c-0.7,0-1.3,0.3-1.9,0.8
			c-0.6,0.6-1.1,1.3-1.4,2.2C342.3,28.8,342.1,29.7,342.1,30.7z" />
			<path fill="#A1A3A6" d="M354,33c1.1-2.2,2.6-3.3,4.4-3.3c1,0,1.8,0.4,2.5,1.1c0.6,0.7,0.9,1.7,0.9,2.8c0,0.9-0.2,1.7-0.5,2.5
			c-0.3,0.8-0.8,1.6-1.3,2.2c-0.5,0.6-1.2,1.1-1.9,1.5c-0.7,0.4-1.5,0.6-2.2,0.6c-1.2,0-2.2-0.4-2.9-1.3c-0.7-0.9-1-2.1-1-3.7
			c0-1.3,0.2-2.6,0.7-4c0.5-1.4,1.1-2.6,1.9-3.6c0.8-1.1,1.7-1.9,2.7-2.5c1-0.6,2-1,3-1c0.7,0,1.3,0.2,1.7,0.5
			c0.4,0.4,0.7,0.8,0.7,1.4c0,0.4-0.1,0.8-0.4,1.1c-0.3,0.3-0.6,0.5-1,0.5c-0.1,0-0.2,0-0.3,0c0.3-0.4,0.4-0.9,0.4-1.3
			c0-0.5-0.1-0.9-0.4-1.2c-0.3-0.3-0.7-0.4-1.2-0.4c-0.8,0-1.6,0.3-2.4,1s-1.4,1.7-2,2.9c-0.3,0.7-0.6,1.5-0.9,2.2
			C354.1,31.8,354,32.5,354,33z M353.5,36.9c0,2.1,0.8,3.2,2.3,3.2c0.7,0,1.4-0.3,2-0.9s1.2-1.5,1.6-2.5c0.4-1.1,0.6-2.1,0.6-3.2
			c0-0.9-0.2-1.6-0.5-2.1c-0.4-0.5-0.9-0.7-1.6-0.7c-1.1,0-2.1,0.6-2.9,1.7c-0.4,0.6-0.7,1.3-1,2.2
			C353.6,35.4,353.5,36.2,353.5,36.9z" />
			<path fill="#A1A3A6" d="M367,39.3l-2.8,1.4l0.2-0.4c1.3-2.7,2.4-4.8,3.3-6.3c1.9-3.3,3.5-5.9,5-7.8h-3.9h-1
			c-0.8,0-1.4,0.1-1.8,0.3c-0.4,0.2-0.8,0.7-1.1,1.4h-0.3l1.4-3.6c0.4,0.2,0.8,0.3,1.3,0.3s1.1,0.1,1.9,0.1h5V25l-0.2,0.3
			c-1.2,1.6-2.2,2.9-2.9,4c-0.7,1.1-1.3,2.3-2,3.7c-0.5,1.1-1,2.2-1.3,3.2C367.5,37.2,367.2,38.2,367,39.3z" />
		</g>
		<g>
			<polygon fill="#33733D" points="377.7,99.3 8.1,99.3 8.1,96.7 375.1,96.7 375.1,50.4 195,50.4 195,9.8 197.7,9.8 197.7,47.8 
			377.7,47.8 		" />
		</g>
	</g>
</svg>
